<svg xmlns="http://www.w3.org/2000/svg" viewBox="0 0 96 96">
  <defs><radialGradient id="g" cx="36%" cy="30%" r="70%"><stop stop-color="#FFB1A7"/><stop offset="1" stop-color="#FF5B58"/></radialGradient></defs>
  <ellipse cx="49" cy="79" rx="27" ry="8" fill="#164C55" opacity=".14"/>
  <path d="M48 28c10-12 25-6 29 9 5 19-7 41-21 41-4 0-6-2-8-2s-5 2-9 2c-14 0-25-22-20-41 4-15 20-21 29-9Z" fill="url(#g)"/>
  <path d="M50 26c1-9 6-14 14-16" fill="none" stroke="#7B4A20" stroke-width="6" stroke-linecap="round"/>
  <path d="M58 18c10-1 16 4 18 12-10 2-17-2-18-12Z" fill="#35B37E"/>
  <circle cx="38" cy="38" r="8" fill="#FFFFFF" opacity=".38"/>
</svg>
